<svg width="158" height="18" viewBox="0 0 158 18" fill="none" xmlns="http://www.w3.org/2000/svg">
<path d="M151.551 14.6283C151.554 14.6759 151.546 14.7234 151.529 14.7679C151.512 14.8123 151.486 14.8527 151.452 14.8863C151.418 14.92 151.377 14.9462 151.333 14.9632C151.288 14.9802 151.24 14.9877 151.193 14.9851H146.195C146.099 14.9812 146.008 14.9428 145.939 14.8772C145.87 14.8116 145.827 14.7231 145.819 14.6283V3.2111C145.819 3.11647 145.856 3.02572 145.924 2.95881C145.991 2.8919 146.082 2.85431 146.177 2.85431H151.193C151.288 2.85431 151.379 2.8919 151.446 2.95881C151.513 3.02572 151.551 3.11647 151.551 3.2111V14.6283ZM157.176 2.26561L155.635 0.749256C155.143 0.300692 154.51 0.0359061 153.844 0H139.334L139.441 17.8394H153.934C154.598 17.7811 155.226 17.5122 155.725 17.0723L157.248 15.5203C157.692 15.0263 157.957 14.3981 158 13.7364V4.12091C157.958 3.45558 157.685 2.82534 157.23 2.33697" fill="white"/>
<path d="M134.712 0.160548H131.129C130.942 0.158186 130.756 0.192895 130.582 0.262661C130.408 0.332428 130.25 0.435863 130.117 0.566966C129.984 0.698069 129.878 0.85423 129.805 1.02639C129.733 1.19855 129.696 1.38328 129.696 1.56986V8.95539L122.943 0.606533C122.801 0.456826 122.628 0.339454 122.436 0.262473C122.244 0.185491 122.038 0.150721 121.832 0.160548H118.249C118.062 0.158186 117.876 0.192895 117.702 0.262661C117.528 0.332428 117.37 0.435863 117.237 0.566966C117.103 0.698069 116.998 0.85423 116.925 1.02639C116.853 1.19855 116.816 1.38328 116.816 1.56986V16.555C116.816 16.9335 116.967 17.2965 117.236 17.5641C117.504 17.8318 117.869 17.9821 118.249 17.9821H121.832C122.212 17.9821 122.576 17.8318 122.845 17.5641C123.114 17.2965 123.265 16.9335 123.265 16.555V5.51238L129.714 13.3974V16.4836C129.714 16.8621 129.865 17.2251 130.134 17.4928C130.402 17.7604 130.767 17.9108 131.147 17.9108H134.73C135.11 17.9108 135.474 17.7604 135.743 17.4928C136.012 17.2251 136.163 16.8621 136.163 16.4836V1.4985C136.144 1.13098 135.982 0.785277 135.711 0.535264C135.44 0.285252 135.081 0.150766 134.712 0.160548Z" fill="white"/>
<path d="M107.178 14.6997C107.178 14.7943 107.141 14.8851 107.074 14.952C107.006 15.0189 106.915 15.0565 106.82 15.0565H101.804C101.709 15.0565 101.618 15.0189 101.551 14.952C101.484 14.8851 101.446 14.7943 101.446 14.6997V3.28244C101.446 3.18781 101.484 3.09706 101.551 3.03015C101.618 2.96324 101.709 2.92565 101.804 2.92565H106.82C106.915 2.92565 107.006 2.96324 107.074 3.03015C107.141 3.09706 107.178 3.18781 107.178 3.28244V14.6997ZM113.627 16.4836V1.51633C113.627 1.13783 113.476 0.774828 113.208 0.507185C112.939 0.239541 112.574 0.0891802 112.194 0.0891802H96.4302C96.0501 0.0891802 95.6856 0.239541 95.4168 0.507185C95.1481 0.774828 94.9971 1.13783 94.9971 1.51633V16.4836C94.9971 16.8621 95.1481 17.2251 95.4168 17.4928C95.6856 17.7604 96.0501 17.9108 96.4302 17.9108H112.194C112.574 17.9108 112.939 17.7604 113.208 17.4928C113.476 17.2251 113.627 16.8621 113.627 16.4836Z" fill="white"/>
<path d="M90.3751 0.160541H86.7923C86.5906 0.159217 86.3909 0.199779 86.2058 0.279641C86.0208 0.359502 85.8544 0.476909 85.7175 0.624367L79.6268 8.08125L73.6615 0.713564C73.5188 0.534361 73.3359 0.39098 73.1274 0.294937C72.919 0.198894 72.6908 0.152863 72.4613 0.160541H68.8785C68.6912 0.158179 68.5052 0.192888 68.3314 0.262655C68.1577 0.332421 67.9995 0.435857 67.8662 0.56696C67.7329 0.698062 67.6271 0.854223 67.5548 1.02638C67.4826 1.19854 67.4454 1.38327 67.4454 1.56986V16.555C67.4454 16.9335 67.5964 17.2965 67.8652 17.5641C68.1339 17.8318 68.4984 17.9821 68.8785 17.9821H72.4613C72.8414 17.9821 73.2059 17.8318 73.4746 17.5641C73.7434 17.2965 73.8944 16.9335 73.8944 16.555V5.51237L78.1937 10.8642V16.555C78.1937 16.9335 78.3447 17.2965 78.6134 17.5641C78.8822 17.8318 79.2467 17.9821 79.6268 17.9821C80.0069 17.9821 80.3714 17.8318 80.6402 17.5641C80.9089 17.2965 81.0599 16.9335 81.0599 16.555V10.8642L85.3592 5.51237V16.4836C85.3592 16.8621 85.5102 17.2251 85.779 17.4928C86.0477 17.7604 86.4122 17.9108 86.7923 17.9108H90.3751C90.7552 17.9108 91.1197 17.7604 91.3884 17.4928C91.6572 17.2251 91.8082 16.8621 91.8082 16.4836V1.4985C91.8082 1.31191 91.771 1.12718 91.6988 0.955025C91.6265 0.782865 91.5207 0.626705 91.3874 0.495602C91.2541 0.364499 91.0959 0.261064 90.9222 0.191297C90.7484 0.121531 90.5624 0.0868215 90.3751 0.0891834" fill="white"/>
<path d="M57.8079 14.6997C57.8079 14.7943 57.7701 14.885 57.703 14.952C57.6358 15.0189 57.5446 15.0565 57.4496 15.0565H52.4337C52.3387 15.0565 52.2476 15.0189 52.1804 14.952C52.1132 14.885 52.0755 14.7943 52.0755 14.6997V3.28244C52.0755 3.18781 52.1132 3.09706 52.1804 3.03015C52.2476 2.96324 52.3387 2.92565 52.4337 2.92565H57.4496C57.5446 2.92565 57.6358 2.96324 57.703 3.03015C57.7701 3.09706 57.8079 3.18781 57.8079 3.28244V14.6997ZM63.4866 2.37263L61.9639 0.838436C61.4635 0.402823 60.8352 0.139999 60.1725 0.0891802H45.6265V18H60.1188C60.7814 17.9491 61.4098 17.6863 61.9102 17.2507L63.4328 15.7165C63.8885 15.2281 64.1607 14.5979 64.2031 13.9326V4.19225C64.1607 3.52692 63.8885 2.89668 63.4328 2.40831" fill="white"/>
<path d="M29.5218 3.28244C29.5194 3.23645 29.5264 3.19045 29.5424 3.14724C29.5584 3.10404 29.5831 3.06454 29.6149 3.03115C29.6468 2.99776 29.6851 2.97118 29.7276 2.95305C29.7701 2.93491 29.8159 2.92559 29.8622 2.92565H35.5946C35.6896 2.92565 35.7807 2.96324 35.8479 3.03015C35.9151 3.09706 35.9529 3.18781 35.9529 3.28244V9.45488C35.9529 9.54951 35.9151 9.64026 35.8479 9.70717C35.7807 9.77408 35.6896 9.81167 35.5946 9.81167H29.8622C29.8159 9.81173 29.7701 9.80241 29.7276 9.78427C29.6851 9.76613 29.6468 9.73956 29.6149 9.70617C29.5831 9.67278 29.5584 9.63328 29.5424 9.59008C29.5264 9.54687 29.5194 9.50087 29.5218 9.45488V3.28244ZM40.9687 15.0565H29.8622C29.8159 15.0565 29.7701 15.0472 29.7276 15.0291C29.6851 15.0109 29.6468 14.9844 29.6149 14.951C29.5831 14.9176 29.5584 14.8781 29.5424 14.8349C29.5264 14.7917 29.5194 14.7457 29.5218 14.6997V13.0228C29.5194 12.9768 29.5264 12.9308 29.5424 12.8876C29.5584 12.8444 29.5831 12.8049 29.6149 12.7715C29.6468 12.7381 29.6851 12.7115 29.7276 12.6934C29.7701 12.6752 29.8159 12.6659 29.8622 12.666H40.9687C41.3488 12.666 41.7133 12.5156 41.9821 12.248C42.2509 11.9803 42.4018 11.6173 42.4018 11.2388V1.51633C42.4018 1.13783 42.2509 0.774828 41.9821 0.507185C41.7133 0.239541 41.3488 0.0891802 40.9687 0.0891802H24.5059C24.1259 0.0891802 23.7613 0.239541 23.4926 0.507185C23.2238 0.774828 23.0728 1.13783 23.0728 1.51633V16.4836C23.0728 16.8621 23.2238 17.2251 23.4926 17.4928C23.7613 17.7604 24.1259 17.9108 24.5059 17.9108H40.9687C41.3488 17.9108 41.7133 17.7604 41.9821 17.4928C42.2509 17.2251 42.4018 16.8621 42.4018 16.4836C42.4018 16.1051 42.2509 15.7421 41.9821 15.4745C41.7133 15.2068 41.3488 15.0565 40.9687 15.0565Z" fill="white"/>
<path d="M13.6145 9.45491C13.6145 9.54954 13.5768 9.64029 13.5096 9.7072C13.4424 9.77411 13.3512 9.8117 13.2562 9.8117H6.80725C6.71223 9.8117 6.6211 9.77411 6.55391 9.7072C6.48672 9.64029 6.44898 9.54954 6.44898 9.45491V3.28247C6.44898 3.18784 6.48672 3.09709 6.55391 3.03018C6.6211 2.96327 6.71223 2.92568 6.80725 2.92568H13.2562C13.3512 2.92568 13.4424 2.96327 13.5096 3.03018C13.5768 3.09709 13.6145 3.18784 13.6145 3.28247V9.45491ZM19.9023 16.2161L16.9644 12.6482H18.6304C19.0105 12.6482 19.375 12.4978 19.6437 12.2302C19.9125 11.9625 20.0635 11.5995 20.0635 11.221V1.49853C20.045 1.13416 19.8853 0.79113 19.618 0.541601C19.3507 0.292073 18.9967 0.155487 18.6304 0.160571H1.43311C1.24576 0.15821 1.0598 0.192919 0.886032 0.262685C0.71226 0.332452 0.554129 0.435887 0.420813 0.56699C0.287497 0.698093 0.18165 0.854253 0.109412 1.02641C0.0371748 1.19857 -1.50067e-05 1.3833 4.54251e-09 1.56989V16.555C4.54252e-09 16.9335 0.150987 17.2965 0.419747 17.5642C0.688506 17.8318 1.05302 17.9822 1.43311 17.9822H5.01587C5.39595 17.9822 5.76047 17.8318 6.02923 17.5642C6.29799 17.2965 6.44898 16.9335 6.44898 16.555V12.6482H8.95691L13.2025 18H19.544C20.3859 17.8573 20.5472 17.1615 19.9023 16.3588" fill="white"/>
</svg>
